<?xml version="1.0" standalone="no"?>
<!DOCTYPE svg PUBLIC "-//W3C//DTD SVG 20010904//EN"
 "http://www.w3.org/TR/2001/REC-SVG-20010904/DTD/svg10.dtd">
<svg version="1.0" xmlns="http://www.w3.org/2000/svg"
 width="3866.000000pt" height="3866.000000pt" viewBox="0 0 3866.000000 3866.000000"
 preserveAspectRatio="xMidYMid meet">
<metadata>
Created by potrace 1.14, written by Peter Selinger 2001-2017
</metadata>
<g transform="translate(0.000000,3866.000000) scale(0.100000,-0.100000)"
fill="#000000" stroke="none">
<path d="M32097 27454 c-1 -1 -132 -4 -292 -8 -159 -3 -333 -8 -385 -11 -234
-11 -421 -21 -535 -30 -71 -5 -137 -10 -275 -20 -41 -3 -95 -7 -120 -10 -25
-2 -79 -7 -120 -10 -137 -11 -185 -15 -230 -20 -25 -2 -70 -7 -100 -10 -30 -3
-95 -10 -145 -15 -49 -5 -115 -12 -145 -15 -30 -3 -71 -7 -90 -10 -44 -6 -101
-13 -165 -20 -57 -6 -111 -12 -172 -20 -24 -3 -60 -7 -80 -10 -21 -2 -55 -7
-75 -10 -21 -3 -53 -7 -70 -9 -92 -12 -135 -18 -158 -21 -14 -2 -47 -7 -75
-10 -27 -4 -95 -13 -150 -21 -55 -8 -118 -17 -140 -20 -22 -2 -128 -18 -235
-35 -107 -17 -206 -32 -220 -34 -14 -2 -97 -15 -185 -29 -196 -33 -185 -31
-325 -55 -63 -11 -155 -27 -205 -36 -49 -8 -110 -20 -135 -25 -25 -5 -61 -12
-80 -14 -19 -3 -96 -17 -170 -31 -74 -14 -148 -28 -165 -31 -30 -5 -571 -112
-610 -120 -11 -3 -40 -9 -65 -14 -25 -5 -56 -12 -70 -15 -14 -3 -41 -8 -60
-11 -19 -3 -38 -8 -41 -10 -4 -2 -24 -6 -45 -9 -22 -4 -52 -10 -69 -15 -16 -5
-47 -12 -69 -16 -21 -3 -46 -7 -55 -9 -24 -6 -383 -86 -401 -90 -8 -2 -46 -10
-85 -19 -95 -21 -709 -165 -857 -202 -10 -2 -26 -6 -35 -8 -10 -2 -56 -14
-103 -26 -80 -21 -95 -24 -137 -34 -10 -2 -90 -23 -178 -46 -88 -22 -171 -43
-185 -46 -14 -3 -33 -7 -42 -10 -9 -3 -25 -7 -35 -9 -10 -2 -110 -29 -223 -59
-113 -30 -250 -66 -305 -81 -55 -15 -165 -45 -245 -67 -80 -22 -158 -44 -175
-48 -91 -24 -383 -107 -480 -135 -49 -15 -97 -29 -105 -30 -8 -2 -94 -27 -190
-55 -96 -29 -191 -56 -210 -61 -19 -5 -42 -11 -50 -14 -8 -2 -34 -10 -58 -19
-23 -8 -46 -15 -50 -16 -4 0 -52 -14 -107 -30 -55 -17 -138 -42 -185 -56 -47
-14 -112 -35 -145 -46 -33 -10 -67 -21 -75 -23 -18 -4 -57 -16 -308 -95 -230
-73 -246 -76 -320 -61 -69 14 -94 18 -197 31 -44 6 -91 13 -105 15 -14 2 -57
6 -95 10 -39 3 -85 8 -101 10 -162 20 -709 27 -929 11 -66 -5 -131 -10 -145
-11 -38 -2 -172 -16 -200 -20 -14 -2 -45 -7 -70 -10 -129 -17 -442 -72 -515
-89 -5 -2 -21 -6 -35 -9 -14 -4 -65 -16 -115 -27 -49 -12 -103 -25 -120 -31
-16 -5 -64 -18 -105 -30 -139 -38 -384 -121 -547 -185 -209 -81 -271 -109
-478 -209 -150 -73 -217 -109 -430 -230 -173 -98 -501 -324 -693 -478 -259
-207 -543 -474 -742 -697 -46 -52 -89 -100 -95 -106 -5 -6 -28 -33 -50 -60
-22 -26 -49 -59 -60 -71 -18 -22 -195 -108 -195 -96 0 3 -6 1 -12 -5 -7 -5
-94 -44 -193 -87 -174 -74 -208 -89 -323 -141 -29 -13 -54 -24 -57 -24 -2 0
-32 -13 -67 -29 -35 -16 -83 -38 -108 -49 -63 -28 -246 -110 -300 -134 -202
-91 -272 -122 -315 -143 -27 -13 -80 -37 -117 -54 -91 -41 -175 -80 -283 -131
-49 -23 -121 -57 -160 -75 -77 -36 -219 -103 -395 -188 -492 -235 -1223 -600
-1667 -833 -209 -110 -320 -168 -383 -202 -36 -19 -99 -52 -140 -75 -41 -22
-97 -52 -125 -67 -27 -15 -81 -44 -120 -65 -92 -49 -155 -84 -300 -165 -66
-37 -147 -82 -180 -100 -33 -18 -89 -50 -125 -70 -36 -21 -87 -50 -115 -66
-79 -43 -102 -56 -245 -139 -219 -126 -240 -138 -357 -208 -61 -37 -117 -67
-122 -67 -6 0 -11 -4 -11 -10 0 -5 -4 -10 -8 -10 -4 0 -82 -45 -173 -99 -90
-55 -195 -119 -234 -142 -38 -23 -157 -96 -263 -163 -107 -66 -206 -128 -222
-138 -152 -90 -876 -567 -1130 -744 -47 -32 -118 -81 -158 -109 -40 -27 -112
-78 -160 -112 -48 -35 -120 -86 -161 -115 -62 -45 -123 -89 -309 -226 -50 -37
-338 -254 -366 -277 -17 -13 -69 -54 -116 -90 -47 -37 -94 -74 -105 -83 -11
-10 -40 -33 -65 -52 -25 -19 -50 -39 -56 -45 -6 -5 -28 -23 -50 -40 -31 -25
-226 -185 -324 -267 -73 -61 -156 -133 -165 -142 -5 -6 -41 -38 -80 -71 -38
-33 -75 -64 -81 -70 -6 -5 -50 -46 -99 -90 -48 -44 -103 -93 -123 -110 -19
-16 -176 -169 -347 -340 -279 -278 -397 -402 -521 -545 -22 -25 -50 -58 -64
-74 -14 -16 -30 -34 -35 -40 -30 -33 -197 -240 -235 -291 -25 -33 -47 -62 -50
-65 -3 -3 -25 -32 -49 -65 -25 -33 -56 -76 -70 -95 -272 -366 -563 -948 -636
-1270 -1 -8 -8 -33 -13 -55 -6 -22 -13 -53 -16 -70 -3 -16 -8 -41 -10 -55 -27
-136 -36 -346 -23 -490 34 -359 198 -694 468 -960 131 -128 325 -273 469 -351
25 -13 47 -27 50 -30 12 -14 287 -142 415 -192 115 -46 340 -124 380 -133 6
-1 44 -12 85 -24 41 -11 82 -23 90 -25 233 -58 523 -120 656 -140 16 -2 92
-14 169 -25 77 -11 151 -22 165 -25 14 -2 54 -7 90 -10 36 -4 72 -8 80 -10 8
-2 51 -6 95 -10 44 -4 94 -9 110 -10 85 -10 232 -21 375 -30 52 -3 124 -8 160
-10 462 -30 1367 -21 2015 20 286 18 353 22 435 30 63 5 156 13 250 20 67 5
141 12 220 20 25 2 74 7 110 10 36 4 76 8 90 10 14 2 57 7 95 10 39 3 81 8 95
10 14 2 52 6 85 10 33 3 98 10 145 16 47 5 101 12 120 14 182 21 270 32 320
40 14 2 45 6 70 9 25 3 62 8 83 11 84 12 110 15 155 20 26 3 54 8 62 10 8 2
38 7 66 10 28 3 61 8 75 10 13 3 44 7 69 10 25 3 56 8 70 10 50 9 87 15 124
20 21 2 46 6 55 9 9 3 43 8 76 11 32 4 62 8 65 10 3 2 30 6 60 10 30 3 62 8
70 10 8 2 29 6 45 9 150 24 616 104 647 111 13 2 37 7 53 10 17 3 55 9 85 15
30 6 69 13 85 15 80 15 221 41 290 55 28 5 61 11 75 14 24 4 669 134 700 141
38 9 254 55 273 59 72 13 797 179 997 227 69 17 133 32 142 34 10 2 156 38
325 80 170 42 315 78 323 80 59 12 940 247 1185 315 136 38 192 53 235 64 41
11 621 178 660 191 47 16 504 153 530 159 61 16 670 205 682 212 4 3 16 7 25
9 20 3 80 22 228 70 55 18 208 67 340 110 132 42 247 79 255 82 24 9 454 154
465 157 10 3 17 5 60 22 11 4 25 8 30 10 8 2 252 86 535 184 437 153 1567 564
1645 600 11 5 85 34 165 64 80 30 197 74 260 99 63 25 158 62 210 82 387 151
1350 540 1485 600 17 8 91 39 165 71 74 31 153 64 175 74 22 10 96 42 165 70
69 29 153 66 188 81 34 16 64 29 67 29 2 0 33 14 68 30 36 17 68 30 71 30 2 0
44 18 91 40 47 22 88 40 90 40 2 0 34 14 72 31 37 17 82 37 100 45 17 8 36 14
42 14 6 0 11 5 11 10 0 6 6 10 13 10 8 0 27 6 43 14 16 8 72 33 124 56 52 23
117 53 143 66 27 13 55 24 63 24 8 0 14 5 14 10 0 6 8 10 18 10 10 0 26 6 37
13 11 8 38 21 60 29 22 9 98 44 168 77 71 34 130 61 132 61 2 0 50 22 107 49
228 108 286 135 363 171 541 255 1445 704 1955 973 220 115 518 274 615 327
76 42 162 88 245 133 41 22 92 51 112 64 21 12 39 23 41 23 5 0 461 254 522
292 17 10 37 21 45 25 8 4 51 28 95 54 643 376 900 530 1245 746 58 36 124 77
148 92 145 89 1020 663 1057 693 8 7 139 98 342 238 60 42 270 192 358 258 55
40 111 82 125 92 114 84 378 283 430 324 36 28 72 56 80 63 177 137 666 537
745 610 11 10 54 47 95 83 41 36 88 77 105 92 16 14 40 35 53 46 87 75 379
352 556 528 136 135 347 359 446 473 30 35 66 76 80 91 34 38 69 79 110 130
19 24 40 48 45 54 12 12 176 223 212 272 12 16 37 50 57 77 20 26 36 51 36 56
0 5 4 11 8 13 13 5 191 279 256 393 32 55 61 107 66 115 5 8 36 71 70 140 338
683 386 1276 144 1775 -36 75 -126 222 -164 268 -74 90 -185 206 -256 267 -82
71 -238 184 -317 229 -18 10 -65 37 -105 60 -90 51 -318 161 -336 161 -6 0
-16 4 -21 9 -6 5 -62 27 -125 50 -63 23 -124 46 -135 50 -82 33 -534 157 -640
175 -16 3 -39 8 -50 10 -74 16 -226 46 -255 50 -19 4 -105 17 -190 30 -146 23
-178 27 -297 42 -27 3 -58 7 -70 9 -12 2 -57 6 -100 10 -43 4 -89 8 -103 11
-14 2 -65 6 -115 9 -49 3 -103 8 -120 10 -16 2 -84 7 -150 10 -66 4 -142 8
-170 10 -142 10 -959 26 -968 19z m-1762 -1638 c33 -3 103 -8 155 -11 147 -10
190 -14 260 -20 112 -11 144 -14 185 -19 22 -3 64 -8 93 -12 29 -3 61 -7 70
-8 21 -4 99 -17 132 -21 80 -11 123 -18 190 -32 89 -17 93 -18 145 -27 207
-37 642 -168 810 -246 206 -95 281 -135 410 -222 240 -161 404 -342 510 -563
94 -196 121 -321 119 -565 -1 -114 -7 -173 -28 -275 -58 -284 -196 -604 -388
-903 -9 -15 -25 -42 -34 -59 -9 -18 -20 -33 -25 -33 -5 0 -9 -5 -9 -11 0 -6
-9 -23 -20 -37 -12 -15 -69 -92 -127 -172 -58 -80 -109 -147 -112 -150 -3 -3
-24 -27 -46 -55 -51 -64 -61 -76 -165 -196 -110 -127 -169 -189 -405 -424
-245 -245 -282 -280 -440 -420 -150 -134 -168 -149 -249 -218 -27 -23 -54 -47
-60 -52 -6 -6 -36 -30 -66 -55 -30 -25 -60 -49 -66 -55 -19 -18 -287 -232
-389 -310 -16 -13 -55 -43 -85 -67 -75 -58 -302 -227 -435 -323 -60 -44 -111
-83 -113 -87 -2 -5 -8 -8 -12 -8 -8 0 -109 -69 -190 -130 -100 -75 -658 -445
-925 -614 -137 -87 -262 -167 -277 -177 -15 -10 -42 -27 -60 -38 -18 -10 -159
-95 -313 -188 -154 -93 -300 -181 -325 -195 -25 -14 -133 -76 -240 -138 -246
-142 -482 -275 -585 -330 -44 -24 -84 -46 -90 -50 -5 -4 -55 -31 -110 -60 -55
-29 -120 -64 -145 -78 -25 -13 -83 -45 -130 -70 -47 -24 -116 -61 -155 -82
-38 -21 -110 -59 -160 -85 -150 -80 -1101 -556 -1245 -625 -74 -35 -198 -94
-275 -131 -77 -36 -160 -76 -185 -87 -25 -11 -94 -44 -155 -72 -60 -29 -159
-74 -220 -102 -60 -28 -132 -60 -160 -73 -27 -12 -81 -37 -120 -55 -38 -17
-85 -38 -102 -46 -18 -8 -50 -22 -70 -31 -21 -10 -40 -18 -43 -18 -3 0 -36
-16 -75 -34 -38 -18 -90 -41 -115 -51 -25 -10 -71 -30 -102 -44 -147 -66 -169
-76 -173 -76 -2 0 -28 -11 -57 -24 -84 -38 -336 -146 -342 -146 -3 0 -29 -11
-58 -24 -65 -30 -439 -187 -453 -190 -5 -1 -28 -10 -50 -20 -22 -10 -141 -58
-265 -107 -124 -50 -234 -94 -245 -99 -11 -5 -96 -39 -190 -76 -248 -96 -280
-109 -385 -149 -52 -20 -108 -41 -125 -48 -16 -6 -32 -12 -35 -13 -7 -1 -41
-14 -65 -25 -33 -14 -485 -182 -685 -254 -102 -37 -201 -73 -220 -80 -19 -8
-96 -35 -170 -61 -74 -25 -144 -50 -155 -55 -58 -26 -1065 -364 -1410 -474
-99 -31 -211 -67 -250 -80 -38 -13 -124 -39 -190 -60 -66 -20 -160 -49 -210
-65 -49 -15 -130 -40 -180 -54 -49 -15 -133 -40 -185 -56 -96 -29 -458 -135
-517 -151 -50 -14 -106 -29 -123 -34 -8 -2 -46 -13 -85 -25 -38 -11 -79 -22
-90 -25 -11 -2 -69 -18 -130 -35 -430 -120 -1470 -387 -1625 -416 -14 -3 -92
-21 -175 -41 -138 -33 -236 -55 -296 -67 -13 -2 -87 -19 -164 -36 -160 -35
-361 -79 -390 -84 -25 -5 -373 -76 -400 -82 -11 -2 -47 -9 -80 -14 -51 -9
-237 -45 -340 -65 -16 -3 -46 -8 -65 -11 -19 -2 -44 -6 -55 -9 -66 -13 -186
-35 -220 -40 -22 -3 -76 -12 -120 -20 -79 -14 -383 -63 -440 -71 -16 -2 -41
-6 -55 -8 -14 -3 -45 -8 -70 -11 -25 -4 -58 -8 -75 -11 -66 -11 -82 -13 -120
-18 -88 -11 -131 -17 -155 -21 -14 -2 -45 -6 -70 -10 -25 -3 -61 -8 -80 -10
-19 -3 -55 -7 -79 -10 -23 -3 -55 -7 -70 -9 -14 -3 -51 -7 -81 -11 -30 -3 -71
-8 -90 -10 -42 -6 -118 -14 -180 -20 -25 -3 -65 -7 -90 -10 -25 -2 -70 -7
-100 -10 -30 -3 -73 -8 -95 -10 -57 -7 -119 -12 -210 -20 -44 -4 -91 -8 -105
-10 -14 -2 -72 -7 -130 -10 -58 -4 -121 -8 -140 -10 -19 -2 -87 -7 -150 -11
-63 -3 -133 -8 -155 -9 -170 -13 -502 -20 -900 -19 -515 0 -730 8 -1045 40
-25 2 -67 6 -95 9 -83 8 -148 15 -185 20 -19 3 -55 8 -78 11 -84 10 -367 57
-422 70 -14 3 -38 8 -55 11 -89 13 -538 138 -620 172 -11 5 -63 26 -115 46
-288 114 -549 277 -726 453 -208 206 -336 455 -370 722 -10 81 -12 242 -3 308
4 31 10 80 13 107 15 119 84 345 157 512 91 209 251 484 388 669 9 12 23 32
31 44 27 40 201 263 258 330 164 195 259 297 497 536 179 179 256 253 445 426
15 13 54 48 89 78 35 30 69 60 75 65 12 11 308 260 367 308 124 102 363 288
536 418 254 190 262 196 430 316 221 157 263 186 288 203 12 8 170 113 351
234 181 120 345 229 364 241 110 72 322 205 325 205 4 0 66 39 91 57 5 5 21
14 35 22 13 8 139 84 279 169 140 84 270 162 290 173 35 19 54 31 100 60 14 9
50 30 80 47 30 16 82 46 115 66 33 19 85 49 115 65 30 17 80 45 110 62 30 18
75 42 99 55 24 13 49 28 55 32 6 5 52 31 101 57 50 26 95 51 100 55 6 4 44 25
85 47 41 22 93 51 115 63 22 12 81 44 130 70 50 26 106 56 125 67 38 21 220
117 475 250 295 154 1346 673 1352 669 2 -1 -10 -36 -26 -77 l-28 -74 -476
-240 c-262 -132 -515 -261 -564 -286 -158 -82 -327 -171 -378 -199 -27 -15
-90 -49 -140 -75 -409 -219 -1241 -693 -1433 -817 -15 -10 -34 -21 -42 -25 -8
-4 -75 -44 -150 -90 -74 -46 -141 -87 -147 -91 -135 -81 -959 -619 -990 -647
-6 -5 -41 -30 -78 -55 -36 -25 -112 -78 -168 -118 -56 -40 -113 -80 -127 -90
-14 -9 -41 -28 -60 -43 -19 -14 -96 -70 -170 -125 -74 -54 -142 -104 -150
-111 -445 -345 -451 -350 -476 -371 -8 -8 -56 -48 -107 -89 -50 -41 -108 -89
-127 -107 -19 -17 -82 -71 -140 -121 -58 -49 -110 -94 -116 -100 -6 -5 -58
-53 -115 -104 -133 -121 -543 -532 -634 -635 -39 -44 -75 -84 -81 -90 -8 -9
-134 -160 -192 -231 -110 -135 -293 -398 -386 -558 -110 -187 -233 -469 -272
-622 -59 -233 -74 -466 -39 -635 3 -14 8 -41 11 -60 4 -19 17 -64 29 -100 146
-423 518 -739 1125 -955 81 -29 257 -84 288 -90 12 -2 26 -6 30 -9 5 -3 19 -7
33 -10 13 -2 62 -13 109 -25 107 -25 137 -31 175 -37 16 -2 37 -6 45 -9 8 -2
33 -7 55 -10 22 -4 47 -8 55 -10 8 -3 33 -7 55 -10 22 -4 51 -8 65 -11 79 -13
388 -49 505 -59 39 -3 93 -8 120 -10 50 -5 170 -12 365 -21 308 -15 1010 -4
1410 21 52 4 124 8 160 10 80 5 213 15 260 20 19 2 71 7 115 10 44 4 96 8 115
10 19 2 67 6 105 10 39 3 86 7 105 10 66 8 115 14 175 20 33 3 74 8 90 10 17
2 59 7 95 10 36 3 72 8 80 10 8 2 44 7 80 10 36 3 72 8 80 10 8 2 38 7 65 10
64 7 111 13 155 19 19 3 53 8 75 11 23 3 51 7 64 10 13 2 44 7 70 10 25 3 71
9 101 15 30 5 75 12 100 15 25 2 54 7 65 9 11 2 40 7 65 11 61 9 91 14 115 19
11 2 42 7 68 10 27 4 58 9 69 11 11 2 75 14 143 25 68 11 132 22 142 24 10 2
38 7 63 11 25 4 54 9 65 11 11 2 31 6 45 9 167 31 461 87 520 99 41 8 86 17
100 20 14 2 68 14 120 25 52 11 106 22 120 25 14 2 90 19 170 36 80 17 156 34
170 36 24 5 278 62 370 83 25 6 104 24 175 41 72 18 141 34 155 36 14 3 117
28 230 55 113 28 212 52 220 54 32 8 414 106 575 149 155 41 357 96 540 147
39 11 93 26 120 33 88 24 407 116 490 141 44 13 134 40 200 60 66 20 127 38
135 40 8 2 80 24 160 48 80 25 177 55 215 67 277 85 1329 428 1380 450 11 5
40 15 65 24 172 59 659 229 675 236 11 5 85 32 165 61 80 28 156 56 170 62 14
5 30 11 35 12 6 2 42 15 80 30 39 14 135 51 215 80 181 67 379 142 405 154 11
5 88 35 170 66 83 32 164 63 180 70 40 17 149 59 155 61 6 1 32 12 99 41 29
12 57 23 62 23 5 0 28 9 52 19 23 11 92 40 152 64 258 104 598 245 680 282 17
7 107 46 200 85 94 40 188 80 210 90 22 10 132 58 245 108 211 92 703 314 845
382 44 20 107 50 140 65 33 16 116 55 185 88 69 33 163 77 210 99 134 63 947
469 1145 572 272 141 397 207 430 226 17 10 71 39 120 65 97 52 141 76 280
152 50 28 122 67 160 88 39 21 103 58 143 82 41 24 75 43 78 43 2 0 38 20 80
45 41 25 77 45 79 45 6 0 564 330 613 362 15 10 34 21 42 25 18 8 441 269 455
280 6 4 53 35 105 67 52 33 239 155 415 272 312 208 362 242 493 334 35 25 73
52 86 60 21 15 191 137 211 152 6 4 96 72 200 149 178 133 404 306 415 319 3
3 37 30 75 60 39 30 75 59 81 65 7 5 31 26 55 45 56 45 242 202 249 209 3 3
37 33 75 66 39 33 75 64 81 70 6 5 51 46 100 90 129 116 555 540 654 652 47
53 90 101 95 107 6 6 33 38 60 71 28 33 53 62 56 65 43 36 328 435 426 595
171 280 291 580 338 845 21 119 26 307 11 418 -9 57 -55 233 -66 247 -4 6 -10
21 -13 35 -9 36 -102 195 -152 260 -278 360 -782 617 -1518 775 -62 13 -128
26 -147 29 -19 3 -46 8 -60 10 -46 9 -155 27 -180 30 -14 2 -47 6 -75 10 -93
13 -200 25 -275 31 -41 4 -86 8 -100 10 -14 2 -68 7 -120 10 -52 4 -120 8
-150 10 -321 23 -1075 23 -1450 0 -30 -2 -111 -6 -180 -10 -69 -4 -145 -8
-170 -10 -25 -2 -81 -7 -125 -10 -92 -6 -180 -14 -245 -20 -82 -8 -175 -17
-215 -20 -22 -1 -62 -5 -90 -9 -27 -3 -79 -8 -115 -12 -36 -3 -73 -8 -82 -9
-9 -2 -49 -7 -89 -10 -40 -4 -80 -8 -88 -10 -9 -2 -45 -6 -81 -10 -36 -3 -72
-8 -80 -10 -8 -2 -43 -7 -78 -10 -35 -4 -71 -8 -81 -10 -10 -2 -42 -6 -71 -10
-29 -4 -61 -8 -70 -10 -9 -2 -41 -6 -71 -10 -30 -3 -65 -8 -79 -10 -14 -3 -56
-9 -95 -14 -130 -19 -150 -22 -200 -31 -27 -5 -72 -12 -98 -15 -27 -4 -59 -8
-70 -11 -12 -2 -65 -11 -117 -19 -52 -9 -106 -18 -120 -20 -14 -2 -43 -7 -65
-10 -22 -4 -98 -17 -170 -30 -153 -28 -171 -31 -250 -46 -33 -5 -127 -23 -210
-39 -82 -16 -161 -31 -175 -34 -14 -2 -72 -14 -130 -26 -58 -12 -114 -23 -125
-26 -26 -5 -280 -58 -405 -84 -139 -30 -691 -156 -790 -181 -47 -11 -95 -23
-106 -25 -36 -7 -817 -204 -850 -215 -27 -8 -39 -6 -81 19 -28 17 -60 33 -72
37 -31 9 -23 14 56 35 37 10 113 30 168 45 55 15 108 29 118 31 33 8 52 13 85
23 17 5 32 8 32 5 0 -3 8 0 18 5 11 6 30 12 43 15 42 9 62 14 129 31 36 9 72
18 80 20 8 2 62 15 120 30 101 26 118 30 158 39 9 2 37 9 62 16 25 7 56 14 69
17 14 2 28 6 31 8 4 2 22 7 41 10 19 3 68 15 109 25 41 10 86 21 100 24 14 2
72 16 130 30 87 21 344 79 400 91 8 2 45 10 81 19 37 8 78 17 90 20 13 2 80
16 149 31 69 15 135 28 146 31 12 2 66 13 120 25 55 11 108 22 119 23 11 2 29
6 40 9 11 3 36 9 55 12 33 5 221 41 265 51 11 2 45 8 75 14 30 6 64 12 75 14
11 2 58 11 105 20 47 8 99 18 115 21 17 3 48 8 70 11 22 3 72 12 110 19 75 15
225 41 290 50 22 3 67 11 100 17 33 5 69 11 80 13 31 4 118 17 140 21 29 6
491 72 550 79 28 3 57 8 65 10 8 2 42 6 75 10 33 3 71 7 85 9 14 2 50 6 80 10
30 4 71 9 90 11 65 9 117 14 166 19 27 3 67 8 89 10 22 3 69 8 105 11 36 3 81
8 100 10 33 4 90 10 212 20 29 3 78 7 108 10 30 3 89 7 130 10 41 3 100 7 130
10 30 3 100 7 155 11 55 3 127 7 160 9 33 3 132 7 220 10 88 4 161 8 163 10 6
6 1087 -3 1157 -9z m-3535 -1881 c118 -3 235 -8 260 -10 179 -12 237 -17 250
-20 8 -2 45 -7 82 -10 37 -3 75 -7 85 -9 10 -2 43 -7 73 -11 30 -4 62 -9 71
-10 9 -2 34 -6 55 -9 395 -62 800 -208 1029 -371 220 -157 364 -362 400 -566
3 -19 9 -50 13 -69 23 -110 -4 -325 -64 -506 -36 -110 -184 -412 -206 -422 -5
-2 -8 -8 -8 -12 0 -15 -204 -309 -229 -330 -3 -3 -31 -36 -62 -75 -158 -197
-457 -503 -683 -700 -38 -33 -76 -67 -85 -76 -46 -45 -405 -340 -511 -419 -40
-30 -141 -107 -155 -118 -99 -75 -445 -323 -500 -358 -16 -10 -32 -21 -35 -25
-7 -8 -423 -282 -530 -349 -47 -29 -101 -63 -120 -75 -28 -18 -143 -89 -250
-155 -124 -75 -369 -220 -373 -220 -4 0 -25 -13 -49 -29 -24 -15 -68 -42 -98
-58 -30 -16 -111 -61 -180 -100 -296 -166 -486 -270 -575 -314 -33 -17 -80
-42 -105 -56 -56 -31 -820 -414 -950 -476 -298 -142 -373 -177 -375 -177 -2 0
-52 -23 -111 -51 -60 -28 -125 -58 -144 -66 -19 -9 -72 -33 -117 -54 -46 -22
-85 -39 -87 -39 -3 0 -33 -13 -68 -29 -86 -40 -457 -201 -462 -201 -2 0 -30
-12 -62 -27 -33 -15 -61 -28 -64 -29 -6 -1 -14 -4 -268 -110 -111 -46 -204
-84 -207 -84 -2 0 -28 -11 -57 -24 -77 -34 -332 -134 -723 -283 -237 -90 -297
-113 -475 -178 -41 -15 -149 -54 -240 -87 -91 -33 -172 -61 -180 -63 -8 -2
-44 -15 -80 -28 -63 -24 -693 -237 -714 -242 -6 -1 -18 -5 -26 -8 -21 -9 -452
-146 -525 -167 -33 -10 -166 -49 -295 -88 -211 -63 -642 -188 -680 -197 -8 -2
-58 -15 -110 -30 -52 -15 -103 -29 -112 -31 -10 -2 -26 -6 -35 -8 -10 -2 -103
-27 -208 -54 -208 -55 -455 -118 -495 -126 -22 -4 -338 -78 -521 -121 -36 -8
-74 -17 -85 -19 -10 -2 -86 -18 -169 -36 -82 -17 -160 -33 -172 -36 -13 -2
-33 -6 -45 -8 -179 -36 -289 -58 -318 -62 -19 -3 -43 -7 -52 -10 -10 -3 -30
-7 -45 -10 -30 -5 -227 -40 -278 -49 -97 -17 -188 -32 -240 -40 -22 -3 -47 -7
-55 -10 -8 -2 -37 -6 -65 -10 -27 -3 -108 -15 -180 -26 -71 -11 -146 -22 -165
-24 -43 -5 -103 -13 -150 -19 -69 -10 -106 -15 -165 -22 -33 -3 -71 -8 -85 -9
-26 -3 -82 -9 -270 -30 -19 -2 -71 -6 -115 -10 -44 -3 -91 -8 -105 -10 -14 -2
-68 -7 -120 -10 -52 -3 -115 -8 -140 -10 -346 -28 -1196 -27 -1435 1 -22 2
-69 7 -105 9 -62 5 -328 40 -380 51 -14 3 -38 7 -54 9 -15 2 -35 7 -45 9 -9 3
-32 8 -51 11 -19 3 -89 19 -155 36 -108 27 -180 49 -340 105 -78 28 -303 145
-380 199 -96 67 -223 195 -279 282 -52 81 -98 188 -119 281 -19 84 -19 286 0
387 30 160 126 400 226 567 12 20 35 58 51 85 130 216 449 594 711 844 28 26
77 74 111 106 57 54 165 152 259 233 22 19 42 37 45 40 27 30 514 416 635 505
356 260 722 510 1017 696 224 141 449 279 454 279 3 0 25 14 49 30 24 17 46
30 48 30 3 0 35 18 71 40 36 22 68 40 71 40 9 0 -5 -83 -15 -94 -5 -4 -18 -13
-29 -20 -38 -21 -196 -117 -256 -156 -33 -21 -80 -51 -105 -66 -25 -15 -137
-88 -250 -163 -113 -74 -213 -140 -222 -146 -9 -5 -49 -32 -88 -60 -40 -27
-82 -57 -93 -65 -53 -36 -342 -245 -347 -250 -3 -3 -41 -32 -85 -65 -202 -151
-408 -319 -649 -529 -183 -159 -452 -427 -603 -601 -49 -56 -61 -71 -106 -125
-25 -29 -119 -153 -137 -180 -8 -12 -28 -41 -45 -64 -16 -23 -36 -53 -44 -66
-8 -14 -31 -52 -51 -85 -120 -196 -190 -368 -229 -560 -23 -111 -21 -310 3
-395 9 -30 18 -64 21 -75 3 -11 20 -52 39 -90 162 -328 558 -561 1166 -685
169 -34 176 -35 295 -50 50 -6 101 -13 115 -16 14 -2 57 -7 95 -10 39 -3 86
-7 105 -9 217 -26 1019 -26 1350 0 19 1 80 6 135 10 55 3 116 8 135 10 19 2
76 6 125 10 50 4 92 8 95 10 3 2 39 6 80 10 103 9 161 15 280 30 19 3 55 7 80
10 25 3 79 10 120 16 41 6 86 13 100 14 23 2 104 14 140 20 8 2 40 6 70 10 30
4 64 9 75 11 11 3 36 6 55 9 19 3 46 7 60 10 14 3 45 8 70 11 25 3 63 9 85 14
22 5 60 11 85 15 25 3 52 8 60 10 8 2 31 7 50 10 19 3 58 10 85 15 28 5 66 11
86 14 20 3 42 8 50 10 8 3 30 7 49 10 19 3 82 15 140 27 58 11 116 23 130 26
14 2 79 16 145 30 66 14 127 26 135 28 59 12 328 72 490 110 107 26 204 48
215 51 30 6 446 111 555 140 52 14 102 27 110 29 67 16 573 159 780 220 85 25
162 47 170 49 108 28 570 176 995 319 182 60 350 117 375 125 25 7 52 16 60
20 8 3 17 6 20 7 3 1 12 5 20 8 8 4 85 31 170 61 85 30 173 61 195 69 22 8 74
27 115 42 41 15 84 31 95 35 11 5 117 45 235 89 261 97 441 166 484 185 17 8
65 27 106 42 41 15 79 31 85 36 5 4 15 8 22 8 7 0 36 11 65 24 29 13 94 40
143 59 50 19 128 52 175 72 47 20 90 38 95 39 6 1 26 9 45 18 19 8 64 28 100
43 36 15 79 33 95 40 17 7 64 28 105 45 41 18 94 41 118 51 107 48 132 59 207
92 78 34 135 59 263 118 35 16 65 29 67 29 5 0 261 120 540 253 164 79 857
426 1000 502 471 249 1332 742 1343 767 2 4 8 8 12 8 9 0 177 103 370 228 393
254 963 659 1175 834 11 9 40 33 65 53 101 83 139 114 240 200 58 49 125 108
150 130 25 23 77 70 115 106 142 129 366 359 480 493 28 33 55 64 60 70 38 41
211 272 222 296 4 8 9 17 13 20 6 6 39 55 56 85 6 11 28 49 49 85 94 165 169
359 199 515 15 81 16 292 1 364 -52 255 -268 501 -572 655 -266 133 -576 216
-1053 281 -14 2 -63 6 -110 10 -47 4 -92 9 -100 10 -138 26 -1076 26 -1370 0
-25 -2 -85 -7 -134 -10 -49 -3 -106 -8 -125 -10 -20 -2 -70 -6 -111 -10 -41
-3 -88 -7 -105 -10 -16 -2 -64 -6 -105 -10 -41 -4 -86 -8 -100 -11 -14 -2 -50
-6 -80 -9 -93 -10 -143 -16 -250 -31 -19 -3 -51 -7 -70 -10 -96 -12 -455 -67
-525 -79 -136 -25 -146 -25 -174 1 -26 25 -26 32 5 38 47 9 192 35 219 40 17
2 48 7 70 11 22 3 76 13 120 20 80 15 207 34 255 39 14 2 39 6 55 9 17 4 53 9
80 12 28 3 61 7 75 10 23 4 85 13 150 20 14 1 43 5 65 9 51 7 138 17 265 30
36 4 81 9 100 11 81 9 193 20 310 29 41 4 95 9 120 11 47 5 207 15 320 20 36
2 164 7 285 10 121 4 221 8 222 9 2 1 78 0 353 -9z m-2122 -1280 c48 -3 114
-10 147 -15 33 -5 84 -12 114 -15 30 -4 63 -9 75 -11 12 -2 35 -7 51 -9 190
-34 420 -113 564 -195 85 -48 77 -43 155 -112 51 -46 146 -164 146 -182 0 -3
9 -25 19 -49 10 -23 24 -62 29 -85 13 -56 13 -217 0 -273 -5 -24 -11 -51 -13
-59 -16 -76 -98 -256 -165 -365 -81 -132 -244 -338 -366 -462 l-31 -32 -18 67
c-46 172 -183 558 -267 752 -10 25 -23 54 -28 65 -78 181 -337 671 -410 775
-21 29 -134 202 -138 211 -1 4 9 5 23 4 14 -2 65 -6 113 -10z m-11354 -4315
c4 -25 9 -56 11 -70 3 -14 7 -43 10 -65 3 -22 7 -49 9 -60 2 -11 12 -60 21
-110 17 -93 25 -133 29 -150 1 -5 8 -37 15 -70 23 -106 108 -416 151 -545 52
-160 128 -365 175 -475 54 -127 81 -187 101 -229 21 -44 24 -73 6 -62 -4 2
-34 7 -67 11 -33 4 -73 8 -90 10 -172 20 -422 79 -524 123 -20 9 -41 16 -47
18 -14 2 -151 69 -189 91 -102 61 -207 161 -260 248 -139 231 -105 514 102
855 35 58 74 119 86 135 41 57 122 160 137 176 8 8 38 42 66 75 28 32 94 102
145 154 l94 95 6 -55 c4 -30 9 -75 13 -100z"/>
</g>
</svg>
